<?xml version="1.0" encoding="utf-8"?>
<!-- Generator: Adobe Illustrator 22.0.1, SVG Export Plug-In . SVG Version: 6.00 Build 0)  -->
<svg version="1.1" id="Layer_1" xmlns="http://www.w3.org/2000/svg" xmlns:xlink="http://www.w3.org/1999/xlink" x="0px" y="0px"
	 viewBox="0 0 576 612.3" style="enable-background:new 0 0 576 612.3;" xml:space="preserve">
<style type="text/css">
	.st0{fill:#372512;}
	.st1{fill:#29B258;}
	.st2{fill:#ED1B2E;}
	.st3{fill:#FFDA62;}
	.st4{fill:#FFFFFF;}
	.st5{fill:#F89927;}
	.st6{fill:#F49949;}
	.st7{fill:#52A847;}
	.st8{fill:#F04B48;}
	.st9{fill:none;stroke:#372512;stroke-miterlimit:10;}
	.st10{fill:none;stroke:#F89927;stroke-miterlimit:10;}
	.st11{fill:none;stroke:#29B258;stroke-miterlimit:10;}
	.st12{fill:none;stroke:#ED1B2E;stroke-miterlimit:10;}
	.st13{fill:#FFFFFF;stroke:#000000;stroke-miterlimit:10;}
</style>
<path class="st0" d="M76,161.4c3,3.1-6.4,13.4-9.6,11.3c-6.7-4.2-31.2-24.1-52.2-48.1c-1.3,1.3-6.3,7.2-8.5,9.8
	c-1.9,2.3-7.1-3-5.4-5.2c7.4-12.1,24.8-29.5,32.2-35.2c2.9-1.9,6.7,3.6,4.9,5.8c-1.3,1.4-9.3,10.4-9.3,10.4
	C38.5,121.7,71.1,155.9,76,161.4z M127.4,115.9c4.2,5.8-10.5,16.5-15.4,11.5c-2.5-2.7-7.4-9.2-8.5-10.8c-6,5.3-12.5,10.2-17.6,14.4
	c2.5,3.5,7.6,13,8.1,13.8c2.4,3.2-3.8,8.9-6.4,5.6c-2.6-3-6.8-10-8.7-12.7c-0.8,0.5-1.4,0.8-2.3,1.1c-2.1,0.3-4.8-3.2-3.8-5
	c0.2-1.3,1-1.8,1.8-2.4c-19.4-30-18-45.8-18.3-48.5c-0.1-9.8,9.6-18.4,20.6-15c18.2,5.6,36.2,30.4,36.8,31.1c1.5-1.1,4.3-3.7,6.4-4
	c2.4-0.3,4.7,1.8,3.7,3.9c-1,2.1-4.1,5.3-4.9,5.9C120,106.5,126.3,114.3,127.4,115.9z M98,111C82.5,93.3,78.7,89,72.2,83.9
	c-5.7-4-5,1.3-5.2,2.6c0.3,2.1,1.8,16.1,15.3,37.6C87.5,119.3,92.7,115.8,98,111z M176.3,79.3c1.7,7-3.8,13.6-12.2,16.2
	c-6.9,1.9-20.2-7.8-25.5-21.3c-8.7-22-1.2-33.2,3.2-36.7c6.5-4.6,14.4-0.2,17.4,2.4c2.3,1.2,7-3.3,4.4-6.3
	c-2.3-2.7-9.5-11.7-25.7-5.4c-9.8,3.8-31.9,23.7-18.7,54.2c12.2,28.5,32.8,30.1,46.6,24.2c16.1-8,21.2-21.7,18.1-29
	C182.8,74.2,175.1,75.9,176.3,79.3z M256.5,40.5c5.4,29.2-10.5,41.8-25,44.9c-14,2.7-40,1.6-46.1-32c-2.8-15.2-0.3-33.8,16.9-43.6
	c5.9-4.4,20.5-7.1,25.3-3.2C244.6,9.2,253.2,22.7,256.5,40.5z M246.5,42.5c-4.3-23.4-16-28.9-27.6-26.8
	c-15.7,2.8-16.9,23.7-14.9,34.9c2,11,11.4,29.8,25.6,26.9C242.3,74.3,249.8,59.4,246.5,42.5z M361.8,11.6c6.5,6.5,16.5,33.8-19.1,46
	c8.8,2.3,9.9,11.1,6.9,16.4c-8.7,15.4-31.4,9.4-37.1-0.7c-12.1-19.6,3.2-61.1,3.2-61.1c-1.3,0.2-2.3,0.2-3.6,0.4
	c-3.9,0.9-5.9-5.9-2.5-7.4C338.3-7.3,356.5,6.3,361.8,11.6z M353.6,16.7c-8.4-7.4-15.8-5.8-18.2-6.1c-14.2,55.8-10.8,56.2-9.4,59.8
	c1.4,3.6,10.6,10,15.7,1.4c5.4-10-10.4-10.1-12.1-11.3c-0.9-0.1-2.6-6.8,1.7-7.5C364.6,45.5,360.9,23.2,353.6,16.7z M443.8,75.2
	c-10.8,27.6-30.9,30-44.9,25c-13.3-5-34.8-19.6-22.4-51.5c5.6-14.4,17.5-28.9,37.4-28.2c7.3-0.6,21.2,4.8,23.2,10.6
	C450.2,42.2,450.4,58.3,443.8,75.2z M424.9,34.3c-14.8-5.9-26.9,11.3-31,21.9c-4,10.4-6,31.4,7.6,36.4c12.5,3.9,26.7-4.9,32.8-20.9
	C442.9,49.5,435.9,38.7,424.9,34.3z M521.5,82c1.6-3.3-6.4-8.7-8.4-4.6c-1.3,2-12.2,20.9-17.3,28.4c-4.3,6.9-20.7,26.2-34,17.2
	c-17-11.4,28.8-62.6,29.8-64.2c3.8-4-11.8-14.4-14.1-11.1c-4.6,5.5-17.5,21-27.6,37c-14.7,23.9-4.7,37.6,6.8,45.3
	c21.3,14.3,38.2-8.8,43.4-14.8C505.9,108.3,519.9,86.1,521.5,82z M575.6,123c-5.9-7.2-23.7-24.3-36-31.3c-2.2-1.6-7.4,3.7-5.1,5.6
	c2.6,2.1,8.6,6.9,10,8.2c-23.5,21.5-42.8,46.5-46.8,53.3c-2,3.3,8.5,12.4,11.5,9.3c5.3-5.1,38.7-38.5,50.1-49.2
	c0,0,9.2,7.9,10.6,9.1C572.2,129.8,577.5,125.8,575.6,123z"/>
<path class="st5" d="M288.1,189.8c-118.1,0-214.6,85.7-220.9,193.6c-0.4,6.2,4.5,11.4,10.7,11.4h420.5c6.2,0,11-5.2,10.7-11.4
	C502.7,275.5,406.2,189.8,288.1,189.8z"/>
<path class="st1" d="M67.1,383.4c-0.1,1,0,2,0.2,3c-0.5,0-1,0.1-1.5,0.1c-24.3,1.1,14.9-20.8-12.5-63.9
	c-24.1-37.7,23.4-48.5,54.3-46.5C84.1,306.7,69.5,343.5,67.1,383.4z M159.5,224.2c1.2,0.5,2.3,1,3.5,1.5
	c20.9-13.3,44.3-23.3,69.5-29.3c-6.2-2.3-13-6-20.1-12.2C181,157.2,163.8,194.1,159.5,224.2z M487.1,305.1
	c12.6,23.9,20.3,50.3,21.9,78.3c0,0.7,0,1.5-0.1,2.2c1.3-0.9,2.6-2.5,3.7-5C523.9,355.4,529.9,293,487.1,305.1z M364.8,187.7
	c-8.9-0.2-10.1,4.8-7.9,12.2c24.3,7.4,46.8,18.5,66.6,32.8l-1.1-2.3c-1.2-2.6,1.2-6.3,5.1-7.5c0.7-0.2,1.4-0.4,2.2-0.6
	C425.8,201,386,188.2,364.8,187.7z"/>
<path class="st2" d="M361.9,187.8c-6.2,0.9-7,5.5-5,12.1c-21.7-6.6-44.8-10.1-68.9-10.1c-19.2,0-37.8,2.3-55.6,6.5
	c-1.8-0.7-3.7-1.5-5.7-2.4c11.2-19.3,35.6-33.6,64.6-35.5C321.8,156.4,348.9,168.6,361.9,187.8z M128,221.8c-25.2,5.9-42,29.1-42,55
	c7.4-0.9,14.9-1.1,21.6-0.7c15.1-19.7,33.9-36.8,55.4-50.5C152.4,220.6,140.2,219,128,221.8z M497.8,254.9
	c-12.9-27.3-43.2-40.5-70.3-32.1c-3.9,1.2-6.3,4.9-5.1,7.5l1.1,2.3c26.7,19.2,48.6,44,63.6,72.4c4.6-1.3,8.7-1.7,12.2-1.4
	C505.4,288.6,505.4,271,497.8,254.9z"/>
<path class="st0" d="M236,342.3c0,19.9-16.1,36-36,36c-19.9,0-36-16.1-36-36c0-19.9,16.1-36,36-36C219.9,306.2,236,322.4,236,342.3z
	 M376.2,306.2c-19.9,0-36,16.1-36,36c0,19.9,16.1,36,36,36c19.9,0,36-16.1,36-36C412.2,322.4,396.1,306.2,376.2,306.2z M259.3,349.5
	c0,15.9,12.9,37,28.8,37c15.9,0,28.8-21.1,28.8-37C294.3,354.7,281.3,355,259.3,349.5z"/>
<path class="st2" d="M289.4,382.2c0,1.5-0.3,3-0.8,4.3c-0.2,0-0.4,0-0.6,0c-8,0-15.3-5.4-20.5-12.8c2.3-2.5,5.6-4.1,9.3-4.1
	C283.8,369.6,289.4,375.2,289.4,382.2z"/>
<path class="st4" d="M200,334.3c0,6.6-5.3,11.9-11.9,11.9c-6.6,0-11.9-5.3-11.9-11.9c0-6.6,5.3-11.9,11.9-11.9
	C194.7,322.4,200,327.7,200,334.3z M206,346.7c-3.3,0-5.9,2.7-5.9,5.9c0,3.3,2.7,5.9,5.9,5.9c3.3,0,5.9-2.7,5.9-5.9
	C211.9,349.3,209.2,346.7,206,346.7z"/>
<path class="st4" d="M375,334.3c0,6.6-5.3,11.9-11.9,11.9s-11.9-5.3-11.9-11.9c0-6.6,5.3-11.9,11.9-11.9S375,327.7,375,334.3z
	 M381,346.7c-3.3,0-5.9,2.7-5.9,5.9c0,3.3,2.7,5.9,5.9,5.9s5.9-2.7,5.9-5.9C386.9,349.3,384.2,346.7,381,346.7z"/>
<path class="st0" d="M188.6,485c-2.2,1.7-14.9,8.4-14.9,8.4c-2.8,1.4-5.3-4.4-3.4-5.8l3.5-2.1c-2.5-3.1-3.4-6.6-15.1-6.6
	c-17.5,0-25.6,35.7-25.3,54.6c0,23.3,3.9,57.5,23.1,58.8c9.9,0,15.7-7.7,16.3-9.9c-0.6,0-4.5-2.3-4.5-2.3c-3-1.7,0-8.6,2.9-7.2
	l15.4,5.7c2.4,1-0.6,8.1-3.5,7l-4.1-1.3c0.3,2.4-4.6,16.4-21.9,16.4c-30.9,0-39.6-31.7-39.9-67.4c0-35.6,14.8-65.7,40.6-65.7
	c18.5,0,21.7,14.9,21.7,14.9c0.6,0,6.1-3.9,6.1-3.9C188.3,476.8,191.4,483,188.6,485z M276.9,514.9l-15.4-1.9
	c-2.9-0.5-3.6,5.9-1.2,6.4c0,0,2,0.3,3.6,0.6c-1.8,38.2-20.6,85-39.4,81.7c-16.1-2.8-16-54.9,3.9-117.7l4.2,0.4
	c1.9,0.1,4.6-7.1,1.7-7.9c-4.8-1.2-23.9-4.3-23.9-4.3c-2,0.1-3.4,8.2-1.8,8.5c0,0,1.8-0.1,3.4,0.1c-0.9,2.1-38.7,120.4,10.8,128.9
	c32.1,5.5,48-57.9,49.1-89.2l4.3,0.7C277.8,521.1,279.2,514.8,276.9,514.9z M341.6,485c0,0,0-9-0.2-11.2c0-2.3-2.5-4.8-5-5.2
	c-5.4-0.2-35.3-5-73.5,10.2c-2,0.8-4.5,3.1-4.8,5.3c0.3,2.8,2.3,12.5,2.3,12.5c0.7,2.7,8.1,0.7,7.5-2.1l-2.4-7.5
	c0,0,14.8-3.4,21.6-4.7c3.7,38,11.3,87.2,19.7,110c-0.3-0.1-6.2,2.5-6.2,2.5c-1.8,1,0.8,7.2,2.9,6.4l20.9-6c2-0.6-0.1-8.6-2.5-7.9
	l-5.2,1.7c-0.2-1.6-10.2-94.9-12.8-109.9c8.3-2.1,24.5-1.6,29.5-1.6l-1,8.2C332.1,487.6,341.4,489.1,341.6,485z M401.2,483.6
	c-1.6-0.1-24-3.5-48.1,1.5c-3,0.3-5.8,2.3-6.6,5.2c-0.1,1.6-14.8,88.2-4.4,114.8c1.9,3.6,6.4,6.6,11.4,7.1c6.1,0.5,30.2-3,36.6-8.4
	c2.1-2.3,1.6-13.7,1.6-13.7c-0.5-3.7-8.7-5.5-8.8-1.9c0,1.7,0.3,7.9,0.1,9.9c-3.6,1.9-25.9,8.1-27.5,4.9c-1.5-3.2-0.8-12.8-0.6-15
	c3.5-1.4,12-0.8,15-0.6l0.2,3.5c0.2,3.2,6,2.1,6.4-1.3c0.4-3.4,0.4-5.9,0.4-9.4c0-4.2-6.6-3.2-6.5-1.2c0,0,0,1.2-0.1,2.9
	c-3.8,0.4-9.8,0-14.8,0.2c0-0.5,4.6-73.5,9.6-90c10.7-1.3,19.6-2,30.5-1.7c-0.2,2.2-1.4,6.6-1.4,6.6c-0.7,3.4,8.2,3.1,8.7-0.2
	c0.6-3,0.8-4.2,1.2-8C404.3,486.9,403.3,484.3,401.2,483.6z M412.5,585.1c-5.5,1.5-12.3,12.9-2.8,20.3c9.4,6.3,19.6-0.4,19.5-8.3
	C429.1,588.6,420.9,583.3,412.5,585.1z M423.1,486.6c-1.3,3-10.9,64-10.5,86.3c0,4.5,14.9,7.3,16.2,2.3c1.2-9.1,18.2-69.9,21.4-80.8
	C453.3,483.6,425.4,479.8,423.1,486.6z"/>
</svg>
